<?xml version="1.0" encoding="iso-8859-1"?>
<!-- Generator: Adobe Illustrator 16.0.0, SVG Export Plug-In . SVG Version: 6.00 Build 0)  -->
<!DOCTYPE svg PUBLIC "-//W3C//DTD SVG 1.1//EN" "http://www.w3.org/Graphics/SVG/1.1/DTD/svg11.dtd">
<svg xmlns="http://www.w3.org/2000/svg" xmlns:xlink="http://www.w3.org/1999/xlink" version="1.1" id="Capa_1" x="0px" y="0px" width="512px" height="512px" viewBox="0 0 466.343 466.343" style="enable-background:new 0 0 466.343 466.343;" xml:space="preserve">
<g>
	<path d="M326.516,17.678c-34.475,0-67.824,13.439-93.344,37.259c-25.518-23.819-58.867-37.259-93.344-37.259   C62.726,17.678,0,83.079,0,163.468c0,20.168,3.292,40.63,9.789,60.833c0.228,0.706,5.587,17.221,10.669,27.096   c23.149,49.651,65.046,97.717,124.537,142.87c44.059,33.44,80.979,52.266,82.53,53.049c1.775,0.899,3.711,1.35,5.647,1.35   c1.936,0,3.872-0.449,5.646-1.35c1.551-0.783,38.471-19.607,82.529-53.049c59.586-45.226,101.524-93.376,124.649-143.112   c0.021-0.045,0.043-0.092,0.063-0.139c0.296-0.656,7.287-16.224,10.554-26.905c6.547-21.417,9.729-41.253,9.729-60.644   C466.344,83.079,403.617,17.678,326.516,17.678z M432.707,216.802c-2.703,8.841-8.919,22.784-9.411,23.884   c-26.589,57.131-78.121,104.062-116.676,133.375c-32.541,24.739-61.597,41.454-73.448,47.938   c-11.852-6.484-40.907-23.199-73.448-47.938c-38.571-29.326-90.129-76.283-116.709-133.445c-0.078-0.168-0.16-0.334-0.246-0.5   c-3.445-6.621-7.804-19.211-9.186-23.484C27.887,198.921,25,181.035,25,163.469c0-66.604,51.512-120.79,114.828-120.79   c31.721,0,62.334,14.011,83.99,38.44c2.373,2.676,5.777,4.208,9.354,4.208l0,0c3.576,0,6.98-1.532,9.354-4.208   c21.978-24.789,51.806-38.44,83.99-38.44c63.316,0,114.828,54.187,114.828,120.79C441.344,180.344,438.519,197.79,432.707,216.802z   " fill="#FFFFFF"/>
</g>
<g>
</g>
<g>
</g>
<g>
</g>
<g>
</g>
<g>
</g>
<g>
</g>
<g>
</g>
<g>
</g>
<g>
</g>
<g>
</g>
<g>
</g>
<g>
</g>
<g>
</g>
<g>
</g>
<g>
</g>
</svg>
